<?xml version="1.0" encoding="utf-8"?>
<!-- Generator: Adobe Illustrator 16.0.0, SVG Export Plug-In . SVG Version: 6.00 Build 0)  -->
<!DOCTYPE svg PUBLIC "-//W3C//DTD SVG 1.1//EN" "http://www.w3.org/Graphics/SVG/1.1/DTD/svg11.dtd">
<svg version="1.1" id="Laag_1" xmlns="http://www.w3.org/2000/svg" xmlns:xlink="http://www.w3.org/1999/xlink" x="0px" y="0px"
	 width="250px" height="250px" viewBox="0 0 250 250" enable-background="new 0 0 250 250" xml:space="preserve">
<path opacity="0.8" fill="#EFD300" enable-background="new    " d="M228.443,139.739c-0.088,1.231-0.627,1.653-1.756,1.928
	c-17.73,4.313-35.449,8.674-53.172,13.021c-24.902,6.11-49.806,12.219-74.708,18.328c-18.892,4.635-37.787,9.258-56.667,13.94
	c-1.171,0.291-1.776,0.071-2.451-0.89c-11.726-16.696-18.188-35.198-19.198-55.594c-0.568-11.471,0.754-22.721,3.844-33.772
	c0.268-0.959,0.585-1.604,1.742-1.885C51.45,88.642,76.81,82.411,102.17,76.188c31.93-7.83,63.859-15.656,95.781-23.523
	c1.164-0.287,1.895-0.119,2.725,0.768c13.756,14.676,22.727,31.822,26.715,51.551c1.367,6.756,2.062,13.582,2.246,20.506
	C229.23,130.239,228.783,134.984,228.443,139.739z"/>
</svg>
