<?xml version="1.0" encoding="utf-8"?>
<!-- Generator: Adobe Illustrator 16.0.0, SVG Export Plug-In . SVG Version: 6.00 Build 0)  -->
<!DOCTYPE svg PUBLIC "-//W3C//DTD SVG 1.1//EN" "http://www.w3.org/Graphics/SVG/1.1/DTD/svg11.dtd">
<svg version="1.1" id="Laag_1" xmlns="http://www.w3.org/2000/svg" xmlns:xlink="http://www.w3.org/1999/xlink" x="0px" y="0px"
	 width="250px" height="250px" viewBox="0 0 250 250" enable-background="new 0 0 250 250" xml:space="preserve">
<g>
	<path opacity="0.8" fill="#EFD300" d="M58.791,134.184l-0.111,3.762l-3.793,0.965l-1.707,11.098l-3.815,0.971l1.732-11.104
		l-3.03,0.773l-1.708,11.098l-3.793,0.965l1.73-11.104l-3.376,0.861l0.111-3.76l3.888-0.99l0.823-5.412l-3.303,0.846l0.111-3.77
		l3.812-0.971l1.618-10.402l3.771-0.961l-1.618,10.404l3.006-0.766l1.641-10.41l3.793-0.965l-1.618,10.402l3.745-0.953l-0.112,3.765
		l-4.231,1.076l-0.849,5.416L58.791,134.184z M52.544,130.574l-3.033,0.775l-0.824,5.408l3.028-0.771L52.544,130.574z"/>
	<path opacity="0.8" fill="#EFD300" d="M75.755,111.626l-0.132,4.413c-1.435-0.61-2.738-0.77-3.909-0.472
		c-1.264,0.323-2.312,1.005-3.136,2.05c-0.826,1.004-1.258,2.17-1.298,3.506c-0.034,1.171,0.219,2.107,0.765,2.805
		c0.278,0.375,0.744,0.831,1.395,1.371c0.648,0.541,1.492,1.176,2.525,1.9c1.9,1.375,3.187,2.654,3.856,3.832
		c0.668,1.141,0.976,2.666,0.919,4.578c-0.077,2.596-0.919,4.934-2.527,7.01c-1.605,2.035-3.626,3.365-6.062,3.986
		c-2.053,0.521-3.785,0.436-5.202-0.252l0.134-4.48c1.676,0.738,3.214,0.93,4.617,0.572c1.312-0.334,2.348-1.004,3.112-2.012
		s1.169-2.217,1.209-3.621c0.037-1.217-0.216-2.238-0.755-3.064c-0.282-0.393-0.673-0.82-1.182-1.287
		c-0.506-0.469-1.139-0.973-1.903-1.512c-1.184-0.82-2.164-1.562-2.939-2.229c-0.776-0.666-1.348-1.275-1.715-1.83
		c-0.7-1.086-1.022-2.605-0.966-4.546c0.08-2.621,0.864-4.89,2.358-6.791c1.512-1.926,3.5-3.202,5.967-3.832
		C72.598,111.286,74.221,111.254,75.755,111.626z"/>
	<path opacity="0.8" fill="#EFD300" d="M81.535,109.461l4.811-1.223l-0.886,29.748l7.86-2.002l-0.113,3.826l-12.672,3.227
		L81.535,109.461z"/>
	<path opacity="0.8" fill="#EFD300" d="M104.195,103.691l3.745-0.956l6.657,31.628l-4.766,1.213l-1.146-6.205l-7.077,1.805
		l-1.556,6.891l-4.627,1.18L104.195,103.691z M108.095,126.047l-0.901-5.076c-0.604-3.457-1.064-7.197-1.39-11.214
		c-0.275,2.07-0.613,4.177-1.013,6.332c-0.402,2.151-0.869,4.445-1.4,6.886l-1.005,4.527L108.095,126.047z"/>
	<path opacity="0.8" fill="#EFD300" d="M130.303,97.731l-0.132,4.414c-1.435-0.611-2.737-0.77-3.909-0.473
		c-1.264,0.323-2.309,1.006-3.135,2.051c-0.827,1.003-1.259,2.17-1.299,3.505c-0.034,1.171,0.221,2.107,0.765,2.805
		c0.28,0.375,0.745,0.831,1.396,1.37c0.647,0.541,1.491,1.177,2.523,1.901c1.902,1.375,3.188,2.653,3.857,3.833
		c0.671,1.139,0.976,2.666,0.919,4.576c-0.077,2.597-0.919,4.935-2.526,7.009c-1.606,2.035-3.627,3.367-6.062,3.986
		c-2.05,0.521-3.785,0.438-5.202-0.25l0.134-4.48c1.678,0.736,3.217,0.928,4.619,0.57c1.311-0.332,2.349-1.002,3.11-2.01
		c0.767-1.008,1.169-2.216,1.209-3.622c0.037-1.216-0.216-2.239-0.755-3.065c-0.28-0.393-0.672-0.818-1.179-1.288
		c-0.509-0.467-1.142-0.971-1.906-1.509c-1.185-0.822-2.165-1.566-2.938-2.229c-0.777-0.665-1.348-1.276-1.716-1.829
		c-0.7-1.088-1.022-2.606-0.966-4.547c0.08-2.621,0.867-4.891,2.358-6.792c1.512-1.926,3.5-3.202,5.968-3.832
		C127.146,97.391,128.769,97.359,130.303,97.731z"/>
	<path opacity="0.8" fill="#EFD300" d="M136.084,95.567l4.811-1.224l-0.393,13.136l7.052-1.797l0.392-13.137l4.813-1.226
		l-1.001,33.576l-4.812,1.225l0.494-16.612l-7.052,1.797l-0.494,16.614l-4.811,1.223L136.084,95.567z"/>
	<path opacity="0.8" fill="#EFD300" d="M155.417,90.642l15.655-3.986l-0.119,3.956l-5.389,1.371l-0.881,29.621l-4.717,1.202
		l0.881-29.62l-5.55,1.412L155.417,90.642z"/>
	<path opacity="0.8" fill="#EFD300" d="M178.151,84.851l3.745-0.953l6.655,31.626l-4.767,1.213l-1.144-6.203l-7.077,1.803
		l-1.559,6.893l-4.624,1.18L178.151,84.851z M182.051,107.21l-0.903-5.079c-0.604-3.457-1.062-7.197-1.388-11.214
		c-0.278,2.07-0.613,4.181-1.016,6.332c-0.399,2.152-0.866,4.448-1.397,6.886l-1.007,4.529L182.051,107.21z"/>
	<path opacity="0.8" fill="#EFD300" d="M200.314,95.003l8.74-2.227l-0.04,1.306c-0.194,6.538-0.934,11.105-2.22,13.711
		c-1.273,2.651-3.559,4.401-6.857,5.242c-3.408,0.867-5.796,0.18-7.169-2.06c-1.355-2.247-1.94-6.446-1.757-12.609
		c0.208-7.047,1.134-11.937,2.777-14.67c1.544-2.566,3.85-4.239,6.92-5.023c2.344-0.596,4.15-0.531,5.432,0.193
		c1.293,0.735,2.275,2.231,2.938,4.495l-4.538,2.902c-0.171-0.832-0.372-1.518-0.6-2.059c-0.231-0.535-0.487-0.938-0.77-1.193
		c-0.566-0.534-1.436-0.65-2.606-0.353c-1.604,0.407-2.726,1.616-3.366,3.621c-0.646,2.093-1.037,5.651-1.188,10.684
		c-0.151,5.089,0.047,8.454,0.593,10.1c0.546,1.644,1.656,2.254,3.318,1.832c1.527-0.39,2.619-1.301,3.271-2.735
		c0.673-1.523,1.056-3.793,1.145-6.811l0.027-0.914l0.02-0.67l-4.185,1.067L200.314,95.003z"/>
</g>
</svg>
